HIERARCHY
ROOT Hips
{
	OFFSET 0.000000 0.000000 0.000000 
	CHANNELS 6 Xposition Yposition Zposition Yrotation Zrotation Xrotation 
	JOINT Lumbar
	{
		OFFSET 0.000000 0.000000 0.000000 
		CHANNELS 3 Zrotation Xrotation Yrotation
		JOINT Neck
		{
			OFFSET 0.000000 0.445665 0.000000 
			CHANNELS 3 Zrotation Xrotation Yrotation
			End Site
			{
				OFFSET 0.000000 0.227535 0.000000 
			}
		}
		JOINT RightShoulder
		{
			OFFSET 0.019635 0.377685 0.194865 
			CHANNELS 3 Zrotation Xrotation Yrotation
			JOINT RightElbow
			{
				OFFSET 0.000000 -0.243375 0.000000 
				CHANNELS 2 Zrotation Yrotation
				JOINT RightWrist
				{
					OFFSET 0.000000 -0.264825 0.000000 
					CHANNELS 2 Zrotation Xrotation
					End Site
					{
						OFFSET 0.006600 -0.176220 0.000990 
					}
				}
			}
		}
		JOINT LeftShoulder
		{
			OFFSET 0.019635 0.377685 -0.194865 
			CHANNELS 3 Zrotation Xrotation Yrotation
			JOINT LeftElbow
			{
				OFFSET 0.000000 -0.243375 0.000000 
				CHANNELS 2 Zrotation Yrotation
				JOINT LeftWrist
				{
					OFFSET 0.000000 -0.264825 0.000000 
					CHANNELS 2 Zrotation Xrotation
					End Site
					{
						OFFSET 0.006600 -0.176220 -0.000990 
					}
				}
			}
		}
	}
	JOINT RightHip
	{
		OFFSET 0.052140 -0.069960 0.075570 
		CHANNELS 3 Zrotation Xrotation Yrotation
		JOINT RightKnee
		{
			OFFSET 0.000000 -0.402270 0.000000 
			CHANNELS 1 Zrotation
			JOINT RightAnkle
			{
				OFFSET 0.000000 -0.404085 0.000000 
				CHANNELS 3 Zrotation Xrotation Yrotation
				End Site
				{
					OFFSET 0.204105 -0.089430 0.008415 
				}
			}
		}
	}
	JOINT LeftHip
	{
		OFFSET 0.052140 -0.069960 -0.075570 
		CHANNELS 3 Zrotation Xrotation Yrotation
		JOINT LeftKnee
		{
			OFFSET 0.000000 -0.402270 0.000000 
			CHANNELS 1 Zrotation
			JOINT LeftAnkle
			{
				OFFSET 0.000000 -0.404085 0.000000 
				CHANNELS 3 Zrotation Xrotation Yrotation
				End Site
				{
					OFFSET 0.204105 -0.089430 -0.008415 
				}
			}
		}
	}
}
MOTION
Frames: 25
Frame Time: 0.02
6e-05 0.00094 -0.00401 -2.44215 -20.7546 0.72442 41.96347 3.07254 -3.44125 -12.33737 -6.49697 -1.2755 -26.52876 -10.87089 -7.75981 24.94911 92.26441 8.95515 0.62129 -39.55349 14.50556 4.74973 27.47428 -139.35502 27.76547 -7.1813 33.25234 1.27032 -14.75195 -19.60819 -7.11308 -2.67854 -3.57074 39.16218 10.11767 9.39038 -26.78638 -9.58278 3.87759 4.25101
0.0006 0.0008 -0.00428 -2.40591 -20.67543 0.73997 42.0626 2.98283 -3.5403 -12.43177 -6.20126 -1.27771 -26.44513 -11.09507 -6.73181 26.62598 91.6575 8.71169 0.45499 -38.99974 14.61698 4.32406 29.47544 -134.4793 26.16696 -6.4028 33.16284 1.22138 -14.89583 -19.70093 -7.10248 -2.68366 -3.57157 39.03441 10.10098 9.43364 -26.81905 -9.52186 3.85359 4.23928
0.00114 0.00067 -0.00455 -2.36977 -20.59657 0.75545 42.1621 2.89327 -3.63959 -12.52612 -5.90589 -1.27992 -26.35939 -11.31973 -5.70404 28.30287 91.05194 8.46876 0.28903 -38.44525 14.72831 3.89814 31.4757 -129.61755 24.57268 -5.62649 33.07358 1.17261 -15.03968 -19.79354 -7.09187 -2.68873 -3.57238 38.90707 10.08438 9.4764 -26.85175 -9.46111 3.82967 4.22758
0.00168 0.00054 -0.00482 -2.33363 -20.51767 0.77094 42.26104 2.80381 -3.73845 -12.6203 -5.61098 -1.28213 -26.27578 -11.54344 -4.67875 29.9754 90.44679 8.22602 0.12322 -37.89297 14.83942 3.47358 33.47152 -124.75666 22.979 -4.85036 32.98436 1.12382 -15.18319 -19.88602 -7.0813 -2.69383 -3.57321 38.7797 10.06775 9.51946 -26.88432 -9.40037 3.80575 4.21588
0.00221 0.0004 -0.00509 -2.29741 -20.43842 0.78651 42.35932 2.71427 -3.83682 -12.71433 -5.31599 -1.28434 -26.19473 -11.76613 -3.65427 31.64599 89.84054 7.9828 -0.0429 -37.3419 14.95054 3.04972 35.46635 -119.88226 21.3813 -4.0721 32.89485 1.07485 -15.32656 -19.97859 -7.07075 -2.69898 -3.57407 38.6519 10.05104 9.56318 -26.91689 -9.33947 3.78174 4.20414
0.00276 0.00027 -0.00535 -2.26145 -20.36036 0.80181 42.46134 2.62469 -3.93801 -12.80932 -5.01987 -1.28656 -26.09891 -11.99486 -2.61968 33.33602 89.23652 7.74048 -0.20853 -36.78003 15.06231 2.61947 37.47793 -115.04743 19.79428 -3.29994 32.8061 1.02651 -15.47139 -20.07126 -7.06002 -2.70387 -3.57479 38.52554 10.03468 9.60395 -26.94989 -9.27904 3.75802 4.19253
0.00328 0.00013 -0.00563 -2.22494 -20.28005 0.8176 42.55583 2.53523 -4.03355 -12.90251 -4.72625 -1.28876 -26.03403 -12.21143 -1.60668 34.98498 88.62853 7.4967 -0.3749 -36.24168 15.1726 2.20287 39.45331 -110.13839 18.18774 -2.51642 32.71604 0.97696 -15.6132 -20.16364 -7.04966 -2.7093 -3.57578 38.39642 10.01757 9.65051 -26.9818 -9.21771 3.73375 4.18068
0.00382 0 -0.00589 -2.18909 -20.20169 0.83301 42.65707 2.44577 -4.13407 -12.99693 -4.4305 -1.29097 -25.93859 -12.43878 -0.57356 36.67196 88.02446 7.2541 -0.54068 -35.67949 15.28433 1.77308 41.46258 -105.29762 16.59876 -1.74325 32.627 0.92854 -15.75765 -20.25623 -7.03896 -2.71422 -3.57652 38.26983 10.00126 9.69193 -27.01508 -9.15724 3.70997 4.16904
0.00438 -0.00013 -0.00614 -2.15342 -20.12622 0.84766 42.7675 2.35583 -4.24172 -13.09463 -4.13121 -1.29319 -25.81336 -12.68135 0.48429 38.40646 87.42379 7.01346 -0.70549 -35.09602 15.39763 1.32911 43.51305 -100.53875 15.0322 -0.98286 32.53992 0.8814 -15.90602 -20.3494 -7.02785 -2.71854 -3.57695 38.14635 9.98552 9.72622 -27.04863 -9.09769 3.68685 4.15768
0.00484 -0.00028 -0.0065 -2.11482 -20.03564 0.86583 42.82789 2.26717 -4.3115 -13.17881 -3.84947 -1.29538 -25.88225 -12.84251 1.40034 39.87088 86.79936 6.76311 -0.87511 -34.65855 15.50135 0.97253 45.32597 -95.30382 13.33948 -0.14931 32.44369 0.82657 -16.03393 -20.4402 -7.01908 -2.72637 -3.57917 38.00503 9.96529 9.79897 -27.07638 -9.03243 3.66012 4.14477
0.00552 -0.00039 -0.00661 -2.08362 -19.97599 0.8771 42.99196 2.17679 -4.45908 -13.28807 -3.53257 -1.29763 -25.52732 -13.17135 2.61481 41.90228 86.22787 6.53229 -1.03505 -33.89831 15.62561 0.42806 47.63968 -91.07686 11.91131 0.53002 32.3654 0.7882 -16.2036 -20.53536 -7.00541 -2.72675 -3.5776 37.90132 9.9553 9.79226 -27.11906 -8.97951 3.6409 4.1351
0.00682 -0.00038 -0.00606 -2.06322 -20.00951 0.86495 43.45865 2.07403 -4.83855 -13.49564 -3.10264 -1.3001 -24.11275 -13.99792 4.66344 45.52897 85.78784 6.3564 -1.16632 -32.36048 15.80285 -0.60971 51.34241 -89.62268 11.22141 0.78297 32.34734 0.79335 -16.50055 -20.6474 -6.9779 -2.70679 -3.56564 37.90235 9.96732 9.55143 -27.18266 -8.95864 3.6433 4.13469
0.00833 -0.00033 -0.00525 -2.05231 -20.07228 0.84682 44.02577 1.97123 -5.29192 -13.72321 -2.6405 -1.30262 -22.25276 -14.98533 7.00848 49.71661 85.40918 6.1952 -1.28949 -30.47658 16.00049 -1.8407 55.54199 -89.1865 10.78962 0.88296 32.34477 0.81522 -16.8369 -20.76263 -6.94555 -2.67929 -3.54986 37.94109 9.9908 9.23375 -27.26599 -8.95078 3.65305 4.13748
0.00974 -0.00032 -0.00454 -2.04288 -20.11664 0.83416 44.53556 1.87312 -5.70049 -13.92201 -2.20388 -1.30507 -20.52989 -15.87532 9.20852 53.62328 85.00427 6.03237 -1.41615 -28.68281 16.19209 -2.99736 59.50889 -88.27086 10.23836 1.05334 32.32857 0.83064 -17.14721 -20.87352 -6.91567 -2.65517 -3.53585 37.96131 10.01292 8.96174 -27.3521 -8.93775 3.65877 4.13854
0.0112 -0.00026 -0.00392 -2.00779 -20.18384 0.80931 45.09627 1.75423 -6.15991 -14.20278 -1.72117 -1.30769 -19.08442 -16.87067 11.45448 57.64567 84.56936 5.86748 -1.53853 -27.17954 16.37359 -4.09594 63.51966 -87.39883 9.71833 1.21431 32.34225 0.84165 -17.49276 -20.99773 -6.8846 -2.63131 -3.52174 37.98654 10.01857 8.64431 -27.38446 -8.92037 3.66743 4.14067
0.0126 -0.00027 -0.00306 -2.02992 -20.20895 0.80913 45.57302 1.67996 -6.5267 -14.319 -1.32694 -1.31 -16.95232 -17.68176 13.67273 61.55417 84.24057 5.68629 -1.67425 -24.97947 16.57659 -5.36326 67.53953 -86.71422 9.1674 1.3654 32.29481 0.86529 -17.77321 -21.09356 -6.85491 -2.60502 -3.50689 38.0114 10.06154 8.40314 -27.5387 -8.91671 3.67172 4.14144
0.01381 -0.00051 -0.00164 -2.1943 -20.12304 0.87284 45.80752 1.71688 -6.65638 -13.96312 -1.18448 -1.31142 -13.0628 -17.9677 15.75914 65.05519 83.93586 5.66726 -1.79253 -21.02664 16.87126 -7.02907 71.60839 -85.96959 8.70543 1.46663 32.09702 0.92391 -17.8725 -21.12226 -6.82998 -2.57479 -3.49127 38.01734 10.2014 8.39225 -27.98047 -8.93401 3.66206 4.13691
0.01496 -0.00081 0 -2.41818 -19.99165 0.96281 45.95148 1.80067 -6.68405 -13.44316 -1.1326 -1.31255 -8.49284 -18.05749 17.80311 68.41142 83.7797 5.59538 -1.9336 -16.37059 17.17986 -8.85986 75.64155 -85.43329 8.16404 1.57272 31.83337 0.99363 -17.90304 -21.12022 -6.8067 -2.54224 -3.47499 38.02402 10.37853 8.46014 -28.55296 -8.96707 3.64778 4.13104
0.01614 -0.00107 0.00153 -2.62399 -19.87268 1.04423 46.12742 1.87122 -6.73343 -13.00693 -1.03912 -1.31384 -4.21441 -18.22293 19.85638 71.80774 83.72652 5.40515 -2.1029 -11.97703 17.45765 -10.63062 79.59597 -85.02443 7.49681 1.71821 31.58486 1.05585 -17.96004 -21.12412 -6.78279 -2.51008 -3.45873 38.03504 10.54148 8.49207 -29.09392 -9.0021 3.63565 4.12631
0.01734 -0.00137 0.00313 -2.7934 -19.78866 1.11039 46.34508 1.90885 -6.88672 -12.53341 -0.94497 -1.31501 0.00723 -18.45424 21.96628 75.34189 82.9702 5.80243 -2.11477 -7.80359 17.8396 -12.35267 83.97021 -83.73856 7.50161 1.68986 31.39793 1.13008 -18.03994 -21.16127 -6.75803 -2.48028 -3.44343 38.0244 10.69534 8.52404 -29.51578 -8.99967 3.62353 4.11948
0.01847 -0.00159 0.00463 -3.05122 -19.62177 1.21561 46.45362 2.02481 -6.80183 -12.09748 -0.8759 -1.31637 4.49993 -18.49556 23.93911 78.53508 83.69469 4.98089 -2.45283 -3.02025 18.00754 -14.20325 87.45315 -84.28402 6.11033 2.01774 31.06866 1.1804 -18.05363 -21.12281 -6.7357 -2.44532 -3.42613 38.06263 10.87414 8.57302 -30.21914 -9.07802 3.61023 4.11663
0.01935 -0.00161 0.00584 -3.55063 -19.22805 1.414 46.27787 2.35751 -6.05444 -11.813 -0.83875 -1.31831 9.5953 -18.09538 25.58562 80.92321 88.62679 0.65584 -3.74866 3.36585 17.58246 -16.4495 88.49631 -90.10421 0.6592 3.40695 30.34751 1.1733 -17.91525 -20.87439 -6.71815 -2.39487 -3.40268 38.20057 11.13636 8.67436 -31.64335 -9.38204 3.59411 4.12516
0.02016 -0.00154 0.00695 -4.13456 -18.75451 1.65223 45.99627 2.7652 -5.07625 -11.57068 -0.82645 -1.32046 14.93143 -17.50412 27.08574 82.95154 95.01316 -4.86493 -5.36045 10.32064 16.94178 -18.80326 88.63866 -97.706 -6.15364 5.14108 29.48846 1.13963 -17.70979 -20.55256 -6.70329 -2.33969 -3.37743 38.39407 11.41839 8.78708 -33.34934 -9.76506 3.5769 4.13762
0.02104 -0.00149 0.0081 -4.67204 -18.3228 1.87786 45.76544 3.13076 -4.22259 -11.30383 -0.81323 -1.32252 20.14469 -16.97559 28.62473 85.07542 100.63391 -9.74071 -6.78643 16.95658 16.39806 -21.05367 89.18282 -104.30936 -12.19727 6.66568 28.70175 1.1105 -17.52567 -20.26997 -6.68829 -2.28785 -3.35355 38.58488 11.67515 8.8773 -34.94418 -10.1082 3.56079 4.14836
0.02177 -0.00153 0.00932 -5.24607 -17.86426 2.08176 45.51861 3.53199 -3.28166 -11.05327 -0.76044 -1.32452 25.44888 -16.53913 30.28168 87.48129 106.70873 -15.05129 -8.39096 23.88113 15.85669 -23.54011 89.75871 -111.71315 -18.87822 8.41096 27.87035 1.11326 -17.37778 -19.96141 -6.66889 -2.23078 -3.32726 38.68029 11.9999 9.03848 -36.47832 -10.47063 3.54256 4.15917
